<?xml version="1.0" standalone="no"?>
<!DOCTYPE svg PUBLIC "-//W3C//DTD SVG 20010904//EN"
 "http://www.w3.org/TR/2001/REC-SVG-20010904/DTD/svg10.dtd">
<svg version="1.0" xmlns="http://www.w3.org/2000/svg"
 width="250.000000pt" height="250.000000pt" viewBox="0 0 250.000000 250.000000"
 preserveAspectRatio="xMidYMid meet">
<metadata>
Created by potrace 1.11, written by Peter Selinger 2001-2013
</metadata>
<g transform="translate(0.000000,250.000000) scale(0.100000,-0.100000)"
fill="#000000" stroke="none">
<path d="M1180 2375 c-35 -36 -69 -65 -74 -65 -5 0 -20 10 -32 21 l-23 21
-121 -113 c-193 -183 -210 -221 -210 -490 l0 -167 34 8 c19 4 37 5 40 2 4 -3
6 -52 6 -109 l0 -103 35 0 35 0 0 169 0 168 170 42 c235 57 299 93 330 186
l12 35 25 -50 c29 -58 87 -111 149 -137 l44 -18 0 -197 0 -198 40 0 40 0 0
110 0 110 28 -6 c15 -3 33 -7 40 -10 15 -4 17 245 2 349 -16 107 -47 156 -189
293 -126 122 -126 123 -147 103 -11 -10 -24 -19 -29 -19 -5 0 -39 29 -75 65
l-66 65 -64 -65z"/>
<path d="M983 1654 c-18 -9 -30 -21 -27 -26 3 -5 13 -3 23 6 20 18 92 21 108
5 6 -6 17 -9 25 -7 18 6 -44 38 -74 38 -13 0 -38 -8 -55 -16z"/>
<path d="M1408 1654 c-16 -8 -28 -19 -28 -25 0 -6 10 -3 22 5 29 21 87 20 117
-1 18 -12 23 -13 19 -2 -12 36 -84 49 -130 23z"/>
<path d="M1015 1507 c-10 -8 -16 -23 -13 -38 2 -19 9 -24 33 -24 25 0 31 4 33
27 4 34 -26 54 -53 35z"/>
<path d="M1436 1508 c-31 -17 -13 -68 25 -68 23 0 42 26 34 48 -7 23 -36 33
-59 20z"/>
<path d="M1222 1440 c-12 -21 -22 -41 -22 -44 0 -4 23 -6 51 -6 l51 0 -23 38
c-12 20 -25 40 -28 44 -3 4 -16 -10 -29 -32z"/>
<path d="M1325 1237 c-39 -29 -142 -32 -172 -4 -22 19 -47 23 -41 5 9 -26 59
-51 110 -55 42 -4 62 0 98 20 25 13 46 31 48 40 5 23 -7 21 -43 -6z"/>
<path d="M995 780 c-396 -43 -702 -342 -759 -743 l-5 -38 146 3 145 3 19 73
c25 98 62 164 136 242 l62 65 1 -192 0 -193 505 0 505 0 0 190 c0 114 4 190
10 190 5 0 34 -26 65 -57 64 -66 127 -183 145 -268 l11 -55 146 0 145 0 -7 43
c-30 193 -97 333 -224 469 -145 155 -322 245 -526 267 -89 9 -95 8 -95 -19 0
-21 -158 -142 -177 -135 -6 2 -46 29 -87 60 -59 43 -76 61 -76 80 0 14 -3 24
-7 24 -5 -1 -39 -5 -78 -9z"/>
</g>
</svg>
